#N canvas -8 -8 1920 989 12;
#X obj 468 544 synthesizer/temp-synth;
#X obj 720 44 synthesizer/short-noise;
#X obj 980 23 synthesizer/rain-synth;
#X obj 468 311 synthesizer/cloud-synth;
#X obj 469 12 data-parser/data-reader-main;
#X obj 467 835 synthesizer/wind-synth;
#N canvas -8 -8 1920 989 sound-out 0;
#X obj 162 813 else/out~;
#X obj 249 757 catch~ all-sonic;
#X obj -32 719 throw~ all-sonic;
#X obj -10 534 catch~ temp-sig;
#X obj -29 511 catch~ short-noise-sig;
#X obj 192 252 else/meter~;
#X obj -3 558 catch~ rain-sig;
#X obj 251 252 else/meter~;
#X obj 133 252 else/meter~;
#X msg 116 575 set \$1;
#X obj 119 110 gui/vol.ui;
#A saved 0.897638 0;
#X obj -1 592 catch~ cloud-sig;
#X obj 309 252 else/meter~;
#X obj 367 252 else/meter~;
#X obj 239 607 catch~ wind-sigL;
#X obj 299 643 catch~ wind-sigR;
#X text 316 115 master-vol;
#X text 127 231 speed-ind;
#X text 196 231 temp;
#X text 260 232 rain;
#X text 313 231 cloud;
#X text 378 231 wind;
#X obj 229 496 cnv 15 100 60 empty empty empty 20 12 0 14 -233017 -66577
0;
#X obj 112 158 gui/save-audio-2;
#X connect 1 0 0 0;
#X connect 1 0 0 1;
#X connect 1 0 23 0;
#X connect 3 0 2 0;
#X connect 3 0 5 0;
#X connect 4 0 2 0;
#X connect 4 0 8 0;
#X connect 6 0 2 0;
#X connect 6 0 7 0;
#X connect 9 0 0 0;
#X connect 10 0 9 0;
#X connect 11 0 2 0;
#X connect 11 0 12 0;
#X connect 14 0 13 0;
#X connect 14 0 0 0;
#X connect 14 0 23 0;
#X connect 15 0 0 1;
#X connect 15 0 13 0;
#X connect 15 0 23 0;
#X coords 0 -1 1 1 360 300 2 100 100;
#X restore 1444 513 pd sound-out;
