#N canvas -8 -8 1920 989 12;
#X obj 38 340 cnv 15 403 161 empty empty options 20 12 0 14 -233017
-66577 0;
#X msg 60 372 read Selangor_mean.csv;
#X text 59 397 can connect this one (daily data with only 153 data
points);
#X msg 59 430 read Selangor_hourly_4PD.csv;
#X text 58 453 can connect this one (hourly data with only 4291 data
points);
#X obj 1519 -87 cnv 15 213 176 empty empty empty 20 12 0 14 -233017
-66577 0;
#X msg 1634 -38 start-reading;
#X obj 895 113 cnv 15 735 372 empty empty Weather-parameters 20 12
0 14 -233344 -66577 0;
#X obj 1083 30 csv_file;
#N canvas 0 0 450 300 open-file 0;
#X obj 37 29 inlet bang;
#X obj 37 54 openpanel;
#X msg 37 79 read \$1;
#X obj 37 104 outlet bin;
#X connect 0 0 1 0;
#X connect 1 0 2 0;
#X connect 2 0 3 0;
#X restore 977 -32 pd open-file;
#X obj 977 -64 bng 15 250 50 0 empty empty open-file 17 7 0 10 -262144
-1 -1;
#X obj 1218 39 t a f;
#X obj 1218 65 list;
#X msg 1218 92 set \$1;
#X msg 1218 117 12190;
#X obj 1085 72 print line ends here;
#X msg 1330 -75 rewind;
#X obj 1256 -204 bng 15 250 50 0 empty \$0-bang empty 5 -9 0 10 -258049
-1 -1;
#X obj 1238 -72 inlet read speed;
#X obj 1078 -82 t b;
#X obj 1590 -63 sel 0 1;
#X obj 1592 -11 pack s;
#X obj 1286 72 s \$0-stop-record;
#X obj 1330 -51 print rewind;
#X msg 1546 -37 stop-reading;
#X obj 1143 -23 t b;
#X text 1528 -81 display message;
#X obj 1146 0 bng 15 250 50 0 empty empty empty 17 7 0 10 -262144 -1
-1;
#X obj 1180 -79 tgl 15 0 empty empty empty 17 7 0 10 -262144 -1 -1
0 1;
#X obj 1181 -28 f;
#X obj 1212 -30 + 1;
#X floatatom 1181 -3 5 0 0 0 - - -;
#X obj 1258 -169 hsl 128 15 0 4292 0 0 empty empty data-point-position
3 5 0 10 -262144 -1 -1 1367 1;
#X obj 1181 21 change;
#X msg 1239 -29 1;
#X obj 1339 5 spigot;
#X obj 1339 30 t b;
#X floatatom 1390 -172 5 0 0 0 - - -;
#X obj 1372 -17 >= 4291;
#X obj 1407 71 s \$0-stop-read1;
#X text 1273 -204 start/stop read;
#X obj 1466 -196 r \$0-stop-read1;
#X floatatom 1124 317 5 0 0 0 cloud - -;
#X floatatom 1238 222 5 0 0 0 humid_mean - -;
#X floatatom 1104 224 6 0 0 0 temp_feel - -;
#X floatatom 969 303 6 0 0 0 temp_mean - -;
#X obj 905 341 s temp;
#X floatatom 1485 390 5 0 0 0 rain_vol - -;
#X floatatom 1339 286 5 0 0 0 wnd_speed - -;
#X floatatom 1416 382 5 0 0 0 wnd_dir - -;
#X floatatom 1292 224 7 0 0 0 atm - -;
#X obj 1120 370 s cloud;
#X obj 1483 407 s rain;
#X obj 1039 203 packel 1 2 3 4 5 6 7 8, f 77;
#X obj 1038 294 s temp-feel;
#X obj 1407 407 s wind_dir;
#X obj 1336 308 s wind_speed;
#X obj 1256 -149 tgl 15 0 empty empty empty 17 7 0 10 -262144 -1 -1
0 1;
#X obj 1256 -134 tgl 15 0 empty empty empty 17 7 0 10 -262144 -1 -1
0 1;
#X obj 1320 -149 tgl 15 0 empty empty empty 17 7 0 10 -262144 -1 -1
0 1;
#X obj 1320 -134 tgl 15 0 empty empty empty 17 7 0 10 -262144 -1 -1
0 1;
#X obj 1385 -149 tgl 15 0 empty empty empty 17 7 0 10 -262144 -1 -1
0 1;
#X text 1272 -150 temp;
#X text 1272 -135 cloud;
#X text 1335 -150 rain;
#X text 1335 -135 w-speed;
#X text 1400 -150 w-dir;
#X obj 1465 -129 s sonify-rain;
#X obj 1465 -166 s sonify-temp;
#X obj 1465 -147 s sonify-cloud;
#X obj 1465 -84 s sonify-w-dir;
#X obj 1465 -107 s sonify-w-speed;
#X symbolatom 1256 -189 15 0 0 0 - - -;
#X msg 1527 17 0;
#X obj 999 245 switch;
#X obj 1122 286 switch;
#X obj 1339 257 switch;
#X obj 1413 358 switch;
#X obj 1483 370 switch;
#X obj 1366 -186 bng 15 250 50 0 empty empty empty 17 7 0 10 -262144
-1 -1;
#X msg 836 -111 read ../data-file/Selangor_hourly_4PD.csv;
#X obj 1131 -120 s read-speed-trig;
#X obj 1181 -54 else/tempo -ms;
#X connect 6 0 21 0;
#X connect 8 0 11 0;
#X connect 8 1 13 0;
#X connect 8 2 15 0;
#X connect 9 0 8 0;
#X connect 10 0 9 0;
#X connect 11 0 12 0;
#X connect 12 0 53 0;
#X connect 13 0 14 0;
#X connect 16 0 8 0;
#X connect 16 0 23 0;
#X connect 17 0 80 0;
#X connect 18 0 82 1;
#X connect 19 0 28 0;
#X connect 20 0 24 0;
#X connect 20 0 73 0;
#X connect 20 1 6 0;
#X connect 21 0 72 0;
#X connect 24 0 21 0;
#X connect 25 0 8 0;
#X connect 25 0 27 0;
#X connect 27 0 79 0;
#X connect 28 0 34 0;
#X connect 28 0 20 0;
#X connect 28 0 82 0;
#X connect 29 0 30 0;
#X connect 29 0 31 0;
#X connect 30 0 29 1;
#X connect 30 0 38 0;
#X connect 31 0 33 0;
#X connect 31 0 35 0;
#X connect 32 0 37 0;
#X connect 33 0 32 0;
#X connect 34 0 29 1;
#X connect 35 0 36 0;
#X connect 36 0 22 0;
#X connect 36 0 16 0;
#X connect 36 0 39 0;
#X connect 38 0 35 1;
#X connect 41 0 17 0;
#X connect 42 0 51 0;
#X connect 44 0 54 0;
#X connect 45 0 46 0;
#X connect 47 0 52 0;
#X connect 48 0 56 0;
#X connect 49 0 55 0;
#X connect 53 0 74 1;
#X connect 53 2 75 1;
#X connect 53 3 43 0;
#X connect 53 4 50 0;
#X connect 53 5 76 1;
#X connect 53 6 77 1;
#X connect 53 7 78 1;
#X connect 57 0 68 0;
#X connect 57 0 74 0;
#X connect 58 0 69 0;
#X connect 58 0 75 0;
#X connect 59 0 67 0;
#X connect 59 0 78 0;
#X connect 60 0 71 0;
#X connect 60 0 76 0;
#X connect 61 0 70 0;
#X connect 61 0 77 0;
#X connect 73 0 59 0;
#X connect 73 0 61 0;
#X connect 73 0 60 0;
#X connect 73 0 58 0;
#X connect 73 0 57 0;
#X connect 74 0 45 0;
#X connect 75 0 42 0;
#X connect 76 0 48 0;
#X connect 77 0 49 0;
#X connect 78 0 47 0;
#X connect 79 0 81 0;
#X connect 80 0 8 0;
#X connect 80 0 19 0;
#X connect 82 0 25 0;
#X connect 82 0 29 0;
#X coords 0 -1 1 1 197 96 2 1249 -207;
