#N canvas 317 172 1440 809 12;
#X obj 490 222 cnv 15 422 230 empty empty empty 20 12 0 14 -237178
-66577 0;
#X msg 228 169 load rain2.WAV;
#X msg 346 169 load rain-drip.WAV;
#X floatatom 232 267 25 0 0 0 - - -;
#X obj 232 291 s rain-samples;
#X obj 889 282 tgl 15 0 empty empty empty 17 7 0 10 -262144 -1 -1 0
1;
#X obj 157 453 *~;
#X obj 496 238 ../gui/vol.ui;
#A saved 0.968504 0;
#X obj 162 730 throw~ rain-sig;
#X obj 487 84 tabwrite~ rain-sig-arr;
#X obj 490 34 tgl 15 0 empty empty empty 17 7 0 10 -262144 -1 -1 0
1;
#X obj 490 58 metro 50;
#X obj 526 -27 loadbang;
#N canvas 0 50 450 250 (subpatch) 0;
#X array rain-sig-arr 100 float 5;
#A 0 0 0 0 0 0 0 0 0 0 0 0 0 0 0 0 0 0 0 0 0 0 0 0 0 0 0 0 0 0 0 0
0 0 0 0 0 0 0 0 0 0 0 0 0 0 0 0 0 0 0 0 0 0 0 0 0 0 0 0 0 0 0 0 0 0
0 0 0 0 0 0 0 0 0 0 0 0 0 0 0 0 0 0 0 0 0 0 0 0 0 0 0 0 0 0 0 0 0 0
0;
#X coords 0 1 99 -1 200 140 1;
#X restore 704 302 graph;
#X obj 163 669 *~ 2.5;
#N canvas 0 0 1440 809 rain-param 0;
#X obj 1152 245 r rain;
#X obj 1137 313 switch;
#X obj 1102 278 r sonify-rain;
#X obj 1081 310 tgl 15 0 empty empty empty 17 7 0 10 -262144 -1 -1
0 1;
#X obj 990 405 spigot;
#X obj 1136 337 == 0;
#X obj 981 439 bng 15 250 50 0 empty empty empty 17 7 0 10 -262144
-1 -1;
#X obj 981 459 outlet;
#X obj 1181 421 spigot;
#X obj 1212 374 != 0;
#X obj 1181 445 moses 0.1;
#X obj 1193 475 moses 10;
#X obj 1222 501 moses 15;
#X obj 1234 531 moses 20;
#X obj 1059 504 != 0;
#X obj 1059 528 change;
#X obj 1059 576 outlet;
#X obj 1142 521 bng 15 250 50 0 empty empty empty 17 7 0 10 -262144
-1 -1;
#X obj 1142 541 outlet;
#X obj 1155 565 bng 15 250 50 0 empty empty empty 17 7 0 10 -262144
-1 -1;
#X obj 1155 585 outlet;
#X obj 1203 600 bng 15 250 50 0 empty empty empty 17 7 0 10 -262144
-1 -1;
#X obj 1203 620 outlet;
#X obj 1216 644 bng 15 250 50 0 empty empty empty 17 7 0 10 -262144
-1 -1;
#X obj 1216 664 outlet;
#X obj 1059 552 bng 15 250 50 0 empty empty empty 17 7 0 10 -262144
-1 -1;
#X connect 0 0 1 1;
#X connect 1 0 5 0;
#X connect 1 0 4 0;
#X connect 1 0 9 0;
#X connect 1 0 8 0;
#X connect 2 0 3 0;
#X connect 3 0 1 0;
#X connect 4 0 6 0;
#X connect 5 0 4 1;
#X connect 6 0 7 0;
#X connect 8 0 10 0;
#X connect 8 0 14 0;
#X connect 9 0 8 1;
#X connect 10 0 17 0;
#X connect 10 1 11 0;
#X connect 11 0 19 0;
#X connect 11 1 12 0;
#X connect 12 0 21 0;
#X connect 12 1 13 0;
#X connect 13 0 23 0;
#X connect 14 0 15 0;
#X connect 15 0 25 0;
#X connect 17 0 18 0;
#X connect 19 0 20 0;
#X connect 21 0 22 0;
#X connect 23 0 24 0;
#X connect 25 0 16 0;
#X restore 992 80 pd rain-param;
#X obj 157 506 else/plate.rev~;
#X obj 723 554 s rain.rev;
#X obj 724 582 r rain.rev;
#X floatatom 273 651 5 0 0 0 - - -;
#X msg 949 120 1;
#X msg 900 114 0;
#X msg 998 120 2.5;
#X msg 1037 123 3;
#X obj 639 -25 r sonify-rain;
#X text 683 249 vol;
#X obj 156 477 hip~ 800;
#X obj 231 243 else/sample~ \$0-rain-sounds -ch 2;
#X obj 129 422 else/tabplayer~ \$0-rain-sounds -loop -fade 300;
#X msg 1074 124 3.5;
#X msg 1109 124 3.8;
#X obj 123 282 tgl 15 0 empty empty empty 17 7 0 10 -262144 -1 -1 1
1;
#X msg 123 302 xfade \$1;
#X msg 117 249 1;
#X obj 825 140 r rain;
#X floatatom 713 247 5 0 0 0 - - -;
#X text 753 247 rain vol;
#X obj 271 676 rmstodb;
#X floatatom 271 700 5 0 0 0 - - -;
#X obj 288 68 sel 0 1;
#X obj 496 274 hradio 15 1 0 2 empty empty empty 0 -8 0 10 -262144
-1 -1 0;
#X text 542 271 choose samples;
#X obj 966 454 else/morph 250 10;
#X obj 496 314 ../gui/plate.rev.ui;
#A saved 39.3701 0.212598 0.291339 0.0629921 0.283465;
#X msg 555 11 0;
#X obj 162 698 clip~ -1 1;
#X text 497 295 reverb;
#X obj 490 194 cnv 15 422 32 empty empty Rain 3 12 1 16 -179642 -66577
0;
#X connect 1 0 27 0;
#X connect 2 0 27 0;
#X connect 3 0 4 0;
#X connect 5 0 28 0;
#X connect 6 0 26 0;
#X connect 7 0 6 1;
#X connect 10 0 11 0;
#X connect 11 0 9 0;
#X connect 12 0 33 0;
#X connect 12 0 44 0;
#X connect 12 0 11 0;
#X connect 14 0 9 0;
#X connect 14 0 45 0;
#X connect 15 0 21 0;
#X connect 15 1 20 0;
#X connect 15 2 22 0;
#X connect 15 3 23 0;
#X connect 15 4 29 0;
#X connect 15 5 30 0;
#X connect 16 0 14 0;
#X connect 16 1 14 0;
#X connect 18 0 16 0;
#X connect 19 0 14 1;
#X connect 19 0 37 0;
#X connect 20 0 42 0;
#X connect 21 0 42 0;
#X connect 22 0 42 0;
#X connect 23 0 42 0;
#X connect 24 0 5 0;
#X connect 24 0 10 0;
#X connect 26 0 16 0;
#X connect 27 0 3 0;
#X connect 28 0 6 0;
#X connect 29 0 42 0;
#X connect 30 0 42 0;
#X connect 31 0 32 0;
#X connect 32 0 28 0;
#X connect 33 0 31 0;
#X connect 34 0 35 0;
#X connect 37 0 38 0;
#X connect 39 0 1 0;
#X connect 39 1 2 0;
#X connect 40 0 39 0;
#X connect 42 0 19 0;
#X connect 43 0 17 0;
#X connect 44 0 40 0;
#X connect 45 0 8 0;
#X coords 0 -1 1 1 430 266 2 487 191;
