#N canvas -8 -8 1920 989 12;
#X obj -24 1 else/initmess 0.8 1000 0.65 500 0.25 300 0 100 0;
#X obj 112 127 else/function 200 100 empty empty 0 1 9 64 103 255 255
254 0 0 0 0 0.8 1000 0.65 500 0.25 300 0 100 0;
#X obj 89 29 inlet;
#X obj 111 111 cnv 15 5 5 empty empty initmess 0 8 0 14 -233017 -66577
0;
#X obj 140 257 else/envgen~;
#X obj 140 281 outlet~;
#X obj 111 236 cnv 15 5 5 empty empty envelope 0 0 0 14 -233017 -66577
0;
#X obj 297 112 bng 15 250 50 0 empty empty empty 17 7 0 10 -262144
-1 -1;
#X obj 277 111 cnv 15 5 5 empty empty reset -26 8 0 14 -233017 -66577
0;
#X obj 89 256 outlet;
#X msg 286 42 bgcolor 9 64 103 \, fgcolor 255 255 254;
#X obj 613 12 loadbang;
#X connect 0 0 1 0;
#X connect 1 0 4 0;
#X connect 1 0 9 0;
#X connect 2 0 1 0;
#X connect 4 0 5 0;
#X connect 7 0 0 0;
#X connect 10 0 1 0;
#X connect 11 0 10 0;
#X coords 0 -1 1 1 225 155 2 100 100;
