#N canvas 0 0 1920 976 12;
#X obj 59 128 hsl 128 15 0 1 0 0 empty empty dry-wet 1 7 0 10 -262144
-1 -1 3800 1;
#X obj 59 88 hsl 128 15 0 1 0 0 empty empty damp 1 7 0 10 -262144 -1
-1 700 1;
#X floatatom 198 128 5 0 0 0 - - -;
#X floatatom 198 88 5 0 0 0 - - -;
#X obj 59 108 hsl 128 15 0 1 0 0 empty empty size 1 7 0 10 -262144
-1 -1 0 1;
#X floatatom 198 108 5 0 0 0 - - -;
#X obj 59 68 hsl 128 15 0 1 0 0 empty empty cutoff 1 7 0 10 -262144
-1 -1 10200 1;
#X floatatom 198 68 5 0 0 0 - - -;
#X obj 59 49 hsl 128 15 0 1000 0 0 empty empty predelay 1 7 0 10 -262144
-1 -1 6800 1;
#X floatatom 198 48 5 0 0 0 - - -;
#X obj 288 236 pack f f f f f;
#X obj 281 184 t b f;
#X obj 324 186 t b f;
#X obj 369 186 t b f;
#X obj 412 188 t b f;
#X obj 455 189 t b f;
#X msg 287 260 set pre \$1 \, addcomma \, add2 cutoff \$2 \, addcomma
\, add2 damp \$3 \, addcomma \, add2 size \$4 \, addcomma \, add2 wet
\$5;
#X obj 287 298 t a;
#X msg 287 322 pre 535.433 \, cutoff 0.80315 \, damp 0.0551181 \, size
0 \, wet 0.299213;
#X obj 289 359 outlet;
#X msg -70 174 color #3da9fc;
#X obj 59 147 bng 15 250 50 0 empty empty empty 17 7 0 10 -64192 -1
-1;
#X obj 102 363 pack f f f f f;
#X obj 99 332 f;
#X obj 102 387 savestate;
#X obj 219 396 unpack f f f f f;
#X obj 622 15 cnv 15 100 60 empty empty empty 20 12 0 14 -233017 -66577
0;
#X connect 0 0 2 0;
#X connect 0 0 22 4;
#X connect 1 0 3 0;
#X connect 1 0 22 2;
#X connect 2 0 15 0;
#X connect 3 0 13 0;
#X connect 4 0 5 0;
#X connect 4 0 22 3;
#X connect 5 0 14 0;
#X connect 6 0 7 0;
#X connect 6 0 22 1;
#X connect 7 0 12 0;
#X connect 8 0 9 0;
#X connect 8 0 23 1;
#X connect 9 0 11 0;
#X connect 10 0 16 0;
#X connect 11 0 10 0;
#X connect 11 1 10 0;
#X connect 12 0 10 0;
#X connect 12 1 10 1;
#X connect 13 0 10 0;
#X connect 13 1 10 2;
#X connect 14 0 10 0;
#X connect 14 1 10 3;
#X connect 15 0 10 0;
#X connect 15 1 10 4;
#X connect 16 0 17 0;
#X connect 17 0 18 0;
#X connect 18 0 19 0;
#X connect 20 0 21 0;
#X connect 21 0 18 0;
#X connect 22 0 24 0;
#X connect 23 0 22 0;
#X connect 24 0 25 0;
#X connect 24 1 23 0;
#X connect 25 0 8 0;
#X connect 25 1 6 0;
#X connect 25 2 1 0;
#X connect 25 3 4 0;
#X connect 25 4 0 0;
#X coords 0 -1 1 1 194 128 2 49 40;
