#N canvas 271 179 700 500 12;
#X obj 108 108 hsl 128 15 0 1 0 0 empty empty empty -2 -8 0 10 -242778
-1 -1 6900 1;
#X obj 495 356 savestate;
#X obj 486 315 f;
#X obj 530 328 pack;
#X obj 500 409 unpack;
#X floatatom 244 108 5 0 0 0 - - -;
#X floatatom 355 308 5 0 0 0 - - -;
#X obj 355 279 else/morph 250;
#X obj 312 58 cnv 15 100 60 empty empty empty 20 12 0 14 -233017 -66577
0;
#X obj 355 393 outlet~;
#X obj 355 332 sig~;
#X connect 0 0 2 1;
#X connect 0 0 5 0;
#X connect 0 0 7 0;
#X connect 1 0 4 0;
#X connect 1 1 2 0;
#X connect 2 0 3 0;
#X connect 3 0 1 0;
#X connect 4 0 0 0;
#X connect 6 0 10 0;
#X connect 7 0 6 0;
#X connect 10 0 9 0;
#X coords 0 -1 1 1 186 32 2 100 100;
